# xmcd CD database file
#
# Track frame offsets:
#	150
#	15920
#	30840
#	44305
#	55270
#	67722
#	79112
#	93212
#	110375
#	124345
#	140465
#	151492
#	165772
#	184807
#	202137
#	217732
#
# Disc length: 3082 seconds
#
# Revision: 0
# Processed by: cddbd v1.4PL0 Copyright (c) Steve Scherf et al.
# Submitted via: CDex 1.50
#
DISCID=c00c0810
DTITLE=Various Artist - Hits Bailables
DYEAR=1900
DGENRE=Salsa
TTITLE0=La Porra Caimanera - Policarpo Calle
TTITLE1=Bailando Con La Dolores - Los Carinosos
TTITLE2=Juanita Bonita - D.R.A.
TTITLE3=Huerfano Soy - Trio La Rosa
TTITLE4=Tolu - Lucho Bermudez
TTITLE5=Cumbia Chola - Orquesta Domino
TTITLE6=Maldita Navidad - Los Black Stars
TTITLE7=Colegiala - Combo Palacio
TTITLE8=Cumbia Candelosa - Edmundo Arias
TTITLE9=Mambo Rock - Alfredito Linares
TTITLE10=Cumbia Que Te Vas De Ronda - Ricaute Arias
TTITLE11=Adios Compay Gato - Trio La Rosa
TTITLE12=El Negro Jose - Combo Palacio
TTITLE13=Amor Estudiantil - Los Angeles De Billy
TTITLE14=Mi Nuevo Ritmo - Alfredito Linares
TTITLE15=Guapachando - Sonora Americana
EXTD=
EXTT0=
EXTT1=
EXTT2=
EXTT3=
EXTT4=
EXTT5=
EXTT6=
EXTT7=
EXTT8=
EXTT9=
EXTT10=
EXTT11=
EXTT12=
EXTT13=
EXTT14=
EXTT15=
PLAYORDER=
